<svg xmlns="http://www.w3.org/2000/svg" width="326.188" height="63.994" viewBox="0 0 326.188 63.994"><defs><style>."lanl-logo"{fill:#fff;}</style></defs><g transform="translate(0 0)"><g transform="translate(0 0)"><rect class="lanl-logo" width="6.81" height="31.778" transform="translate(191.688 7.908)"/><path class="lanl-logo" d="M634.048,47.608c-1.273-2.982-4.479-4.738-8.033-4.738-6.231,0-11.1,4.6-11.1,13.035s4.932,13.127,11.15,13.127c3.509,0,6.757-1.8,7.987-4.7v4.084h6.672V43.353h-6.672Zm-6.1,15.846c-3.729,0-6.363-2.765-6.363-7.563s2.631-7.5,6.32-7.5,6.366,2.808,6.366,7.5S631.634,63.454,627.945,63.454Z" transform="translate(-412.713 -28.773)"/><path class="lanl-logo" d="M737.751,42.87c-4.7,0-7.635,2.325-8.822,5.353-1.361-3.906-3.466-5.353-7.563-5.353-3.555,0-6.409,1.8-7.287,4.6v-4.12H707.42V68.459h6.672V56.082c0-5.311,1.45-7.563,4.916-7.563,3.38,0,4.6,1.887,4.6,7.329v12.6H730.3V55.6c0-5,1.394-7.1,4.906-7.1,3.423,0,4.742,2.019,4.742,7.333v12.64h6.672V55.2C746.619,46.467,744.028,42.87,737.751,42.87Z" transform="translate(-474.803 -28.773)"/><path class="lanl-logo" d="M849.976,42.87C843.393,42.87,837,46.859,837,55.9c0,9.131,6.409,13.127,12.992,13.127s12.949-4,12.949-13.127C862.925,46.859,856.516,42.87,849.976,42.87Zm0,20.584c-3.729,0-6.363-2.765-6.363-7.563s2.631-7.5,6.32-7.5,6.366,2.808,6.366,7.5S853.708,63.454,849.976,63.454Z" transform="translate(-561.774 -28.773)"/><path class="lanl-logo" d="M928.331,50.287c0-1.667,1.621-2.631,4.386-2.631a5.177,5.177,0,0,1,4.932,2.723l5.968-1.056c-1.243-3.91-5.9-6.323-11.075-6.323-6.248,0-10.71,2.986-10.8,7.507C921.659,60.559,937.5,56.482,937.5,61.48c0,1.756-1.71,2.765-4.7,2.765-2.854,0-5-1.141-5.919-3.117l-6.057,1.009c1.23,4.081,5.705,6.846,11.94,6.846,7.024,0,11.456-3.114,11.456-8.119C944.233,50.813,928.331,55.291,928.331,50.287Z" transform="translate(-618.039 -28.861)"/><path class="lanl-logo" d="M491.077,24.05l-12.6,31.778h7.287l2.535-6.961h12.574l2.535,6.961h7.329L498.1,24.05Zm-.917,19.713L494.6,31.6l4.442,12.167Z" transform="translate(-321.144 -16.142)"/><path class="lanl-logo" d="M235.1,149.944l-1.25-2.4H233.8v8.668H232.05V144.88H234.1l3.7,6.264,1.25,2.4h.049V144.88h1.753v11.328H238.8Z" transform="translate(-155.746 -97.24)"/><path class="lanl-logo" d="M282.812,156.208l-1.023-3.068h-4.235l-.986,3.068H274.7l3.864-11.328h2.3l3.86,11.328Zm-3.1-9.644h-.079l-1.644,5h3.344Z" transform="translate(-184.372 -97.24)"/><path class="lanl-logo" d="M318.017,146.5H314.64V144.88h8.586V146.5h-3.377v9.707h-1.832Z" transform="translate(-211.179 -97.24)"/><path class="lanl-logo" d="M355.92,156.208v-1.493h1.539v-8.342H355.92V144.88h4.932v1.493h-1.559v8.342h1.559v1.493Z" transform="translate(-238.885 -97.24)"/><path class="lanl-logo" d="M385.59,150.14c0-3.814,1.934-5.86,4.886-5.86s4.886,2.045,4.886,5.86-1.933,5.86-4.886,5.86S385.59,153.954,385.59,150.14Zm7.81.894v-1.786c0-2.062-1.171-3.328-2.923-3.328s-2.92,1.266-2.92,3.328v1.786c0,2.062,1.167,3.328,2.92,3.328S393.4,153.1,393.4,151.034Z" transform="translate(-258.799 -96.837)"/><path class="lanl-logo" d="M435.772,149.944l-1.25-2.394h-.049v8.668H432.72V144.88h2.045l3.7,6.264,1.253,2.4h.046V144.88h1.753v11.328h-2.045Z" transform="translate(-290.431 -97.24)"/><path class="lanl-logo" d="M483.469,156.208l-1.009-3.068h-4.235l-.986,3.068H475.37l3.864-11.328h2.3l3.86,11.328Zm-3.088-9.644H480.3l-1.644,5H482Z" transform="translate(-319.057 -97.24)"/><path class="lanl-logo" d="M521.75,156.208V144.88h1.835v9.7h4.6v1.624Z" transform="translate(-350.186 -97.24)"/><path class="lanl-logo" d="M579.41,156.208V144.88h1.838v9.7h4.6v1.624Z" transform="translate(-388.886 -97.24)"/><path class="lanl-logo" d="M621.6,156.208l-1.023-3.068h-4.235l-.987,3.068H613.49l3.864-11.328h2.3l3.867,11.328Zm-3.1-9.644h-.082l-1.644,5h3.344Z" transform="translate(-411.759 -97.24)"/><path class="lanl-logo" d="M659.87,144.88h5.014a2.769,2.769,0,0,1,3.019,2.92,2.136,2.136,0,0,1-1.973,2.4v.1a2.49,2.49,0,0,1,2.368,2.631,3.05,3.05,0,0,1-2.923,3.262h-5.5Zm1.835,4.788h2.841a1.268,1.268,0,0,0,1.427-1.348v-.52a1.266,1.266,0,0,0-1.427-1.345H661.7Zm0,4.965h3.14a1.363,1.363,0,0,0,1.526-1.444v-.552a1.363,1.363,0,0,0-1.526-1.444H661.7Z" transform="translate(-442.889 -97.24)"/><path class="lanl-logo" d="M701.21,150.14c0-3.814,1.93-5.86,4.886-5.86s4.883,2.045,4.883,5.86S709.049,156,706.1,156,701.21,153.954,701.21,150.14Zm7.823.894v-1.786c0-2.062-1.167-3.328-2.92-3.328s-2.923,1.266-2.923,3.328v1.786c0,2.062,1.167,3.328,2.923,3.328S709.033,153.1,709.033,151.034Z" transform="translate(-470.635 -96.837)"/><path class="lanl-logo" d="M750.165,156.208H748.33V144.88h4.886a3.112,3.112,0,0,1,3.288,3.407,3,3,0,0,1-2.206,3.15l2.45,4.771H754.7l-2.272-4.577h-2.256Zm2.923-6.119a1.316,1.316,0,0,0,1.476-1.411V147.9a1.317,1.317,0,0,0-1.476-1.414h-2.923V150.1Z" transform="translate(-502.261 -97.24)"/><path class="lanl-logo" d="M797.042,156.208l-1.023-3.068h-4.235l-.986,3.068H788.93l3.864-11.328h2.3l3.864,11.328Zm-3.1-9.644h-.079l-1.644,5h3.344Z" transform="translate(-529.51 -97.24)"/><path class="lanl-logo" d="M832.244,146.5H828.87V144.88h8.592V146.5h-3.384v9.707h-1.835Z" transform="translate(-556.317 -97.24)"/><path class="lanl-logo" d="M868.68,150.14c0-3.814,1.934-5.86,4.886-5.86s4.886,2.045,4.886,5.86-1.933,5.86-4.886,5.86S868.68,153.954,868.68,150.14Zm7.806.894v-1.786c0-2.062-1.167-3.328-2.92-3.328s-2.92,1.266-2.92,3.328v1.786c0,2.062,1.167,3.328,2.92,3.328S876.486,153.1,876.486,151.034Z" transform="translate(-583.037 -96.837)"/><path class="lanl-logo" d="M917.645,156.208H915.81V144.88H920.7a3.112,3.112,0,0,1,3.288,3.407,3,3,0,0,1-2.21,3.15l2.453,4.771h-2.045l-2.272-4.577h-2.256Zm2.92-6.119a1.317,1.317,0,0,0,1.48-1.411V147.9a1.318,1.318,0,0,0-1.48-1.414h-2.92V150.1Z" transform="translate(-614.669 -97.24)"/><path class="lanl-logo" d="M957.977,156.208v-4.462l-3.9-6.866h2.095l2.759,5.047h.053l2.739-5.047h2.016l-3.946,6.833v4.5Z" transform="translate(-640.355 -97.24)"/><path class="lanl-logo" d="M232.13,24.05h6.935V49.639H250.83v6.188h-18.7Z" transform="translate(-155.8 -16.142)"/><path class="lanl-logo" d="M292.73,55.9c0-9.043,6.406-13.035,12.992-13.035s12.946,3.989,12.946,13.035c0,9.131-6.363,13.127-12.946,13.127S292.73,65.036,292.73,55.9Zm19.312,0c0-4.7-2.631-7.5-6.366-7.5s-6.32,2.765-6.32,7.5,2.631,7.563,6.366,7.563S312.042,60.646,312.042,55.9Z" transform="translate(-196.473 -28.773)"/><path class="lanl-logo" d="M376.59,62.138l6.054-1.009c.921,1.973,3.071,3.117,5.919,3.117,2.982,0,4.7-1.009,4.7-2.765,0-5-15.846-.921-15.757-10.973.1-4.521,4.574-7.507,10.808-7.507,5.179,0,9.832,2.414,11.058,6.32L393.4,50.376a5.138,5.138,0,0,0-4.916-2.723c-2.765,0-4.39.967-4.39,2.631,0,5,15.889.526,15.889,10.578,0,5-4.433,8.119-11.456,8.119C382.3,68.977,377.817,66.218,376.59,62.138Z" transform="translate(-252.758 -28.861)"/><path class="lanl-logo" d="M33.583,52.612c6.359,3.509,13.186,5.37,17.822,4.827a31.981,31.981,0,0,1-39.5-.552C16.441,58.225,23.419,57.692,33.583,52.612ZM10.618,52.1c3.18,3.341,11.838,2.174,20.144-1.2a62.94,62.94,0,0,1-15.156-14.07C11.588,41.761,7.438,48.761,10.618,52.1ZM42.09,14.159C30.229,5.61,19.072,3.775,14.139,7.458s-4.636,13,2.088,23.452A80.144,80.144,0,0,1,42.09,14.159Zm16.234-.349a29.057,29.057,0,0,0-10.9,1.595,49.721,49.721,0,0,1,8.612,10.434c.132.217-.085.585-.477.819s-.822.247-.95.03A50.361,50.361,0,0,0,44.842,16.31,77.736,77.736,0,0,0,18.286,33.869a62.316,62.316,0,0,0,16.29,15.419A60.753,60.753,0,0,0,45.8,42.418h0a3.86,3.86,0,1,1,1.315,1.315h0a63.4,63.4,0,0,1-10.059,7.053c6.336,3.617,12.676,5.38,17.428,3.992a31.978,31.978,0,0,0,3.844-40.968ZM32,0A31.866,31.866,0,0,0,20.354,2.2c6.119-.112,15.7,3.209,24.6,10.97a29.957,29.957,0,0,1,11.6-1.677A31.929,31.929,0,0,0,32,0ZM7.175,11.811A31.978,31.978,0,0,0,5.962,50.59c-.635-4.482,1.769-10.1,7.507-16.7C8.323,26.349,5.659,18.125,7.175,11.811Z" transform="translate(0 0)"/></g></g></svg>